<?xml version="1.0" encoding="UTF-8" standalone="no"?>
<svg
   version="1.1"
   id="Layer_1"
   x="0px"
   y="0px"
   width="936.47974"
   viewBox="0 0 936.47974 301.97556"
   enable-background="new 0 0 1024 1024"
   xml:space="preserve"
   height="301.97556"
   xmlns="http://www.w3.org/2000/svg"
   xmlns:svg="http://www.w3.org/2000/svg"><defs
   id="defs14" />
<path
   fill="#000000"
   opacity="1"
   stroke="none"
   d="m 84.436554,6.64145 c 33.134676,-3.85348 63.117646,0.52058 86.206356,26.96628 22.76572,26.07567 8.96501,71.35518 -24.19304,79.16007 -1.07609,-0.45333 -1.39547,-1.41789 -1.61665,-2.43285 -2.90551,-13.332772 -11.73838,-23.105832 -23.25326,-24.854962 -13.70224,-2.08147 -24.671746,2.93149 -32.190976,14.50322 -11.0518,17.008142 -10.30975,34.302902 -0.32298,51.568422 9.99954,17.28752 24.274816,30.90242 38.587586,44.38945 15.81536,14.90296 32.61208,28.69079 49.93017,41.837 2.41876,1.83607 4.18675,2.63615 6.90946,0.42358 27.49517,-22.3445 55.97582,-43.61974 77.77446,-72.09656 7.03917,-9.1957 12.731,-19.0988 14.62355,-30.74766 1.94797,-11.98946 -2.76624,-31.67258 -17.31941,-39.987642 -13.27527,-7.58495 -27.9545,-4.62262 -36.96511,7.742322 -0.95408,1.30925 -1.68211,2.83668 -3.9124,3.63143 -8.23725,-6.819592 -15.08749,-14.545662 -15.1706,-26.36925 -0.22058,-31.38901 14.53046,-50.14749 46.76901,-58.27904 6.04892,-1.52573 8.57087,-4.60369 9.76533,-10.04591 0.89741,-4.08896 2.10606,-8.10958 3.14678,-12.04935 1.19464,0.17086 1.77069,0.0788 1.95132,0.30398 10.44197,13.01853 24.70532,20.1865 39.33243,27.51665 26.41134,13.23555 39.70693,36.38099 43.85204,64.988038 6.23836,43.053612 -8.60782,79.402652 -37.02141,110.786862 -22.82648,25.21295 -50.10772,45.33106 -77.6638,64.99398 -15.84841,11.30879 -32.08602,22.04536 -48.79606,32.06025 -2.54772,1.52687 -4.5714,1.87685 -7.30961,0.29554 C 132.58154,274.975 88.694594,247.41115 50.184917,212.2364 26.192104,190.32142 8.4778797,164.25653 2.5546127,131.68812 -2.8119273,102.18079 -0.57095334,73.48242 17.482909,48.25644 33.772657,25.49537 55.957614,11.28017 84.436554,6.64145 Z"
   id="path1"
   style="stroke-width:1.2305" />
<path
   fill="#000000"
   opacity="1"
   stroke="none"
   d="m 596.10419,234.88995 c -17.69856,-0.0204 -17.50457,-0.0756 -22.35749,-17.11155 -5.60043,-19.65968 -11.5893,-39.20862 -17.40558,-58.80687 -0.68713,-2.31553 -1.83555,-4.5412 -1.44088,-7.71536 6.59091,-1.01762 13.2835,-0.71251 19.92157,-0.28081 3.11577,0.20263 3.06215,3.42095 3.62873,5.70253 3.73913,15.05817 7.41532,30.13193 11.13154,45.19588 0.12798,0.51889 0.46174,0.98709 1.2079,2.52958 3.12538,-12.37069 6.00412,-23.7595 8.87459,-35.15034 0.0996,-0.39516 0.0846,-0.81867 0.17883,-1.21571 4.32659,-18.21472 4.32419,-18.13676 22.97807,-17.37903 3.66538,0.14889 5.4262,1.36768 6.31205,5.07782 3.74018,15.66332 7.78768,31.25326 12.1296,48.48446 3.18651,-13.00599 6.14464,-24.60581 8.85762,-36.26271 4.1308,-17.74869 4.05885,-17.77423 22.24799,-17.22774 1.60467,0.0482 3.20289,0.31007 5.12119,0.50493 -0.87023,7.89662 -3.85389,14.89377 -5.9586,22.08434 -5.51234,18.83271 -11.41394,37.55104 -17.02789,56.35453 -1.07736,3.6083 -2.75511,5.27291 -6.83581,5.3384 -17.64615,0.28336 -17.55249,0.39241 -22.12633,-16.59709 -3.13484,-11.64391 -6.56822,-23.2076 -10.10562,-35.6422 -4.2795,15.60677 -8.37042,30.54842 -12.47748,45.48571 -0.91132,3.31449 -1.2951,7.16883 -6.854,6.63123 z"
   id="path2"
   style="stroke-width:1.2305" />
<path
   fill="#000000"
   opacity="1"
   stroke="none"
   d="m 476.31056,160.75841 c -0.92889,18.81945 -15.44334,33.18655 -33.76549,33.86377 -5.3242,0.19684 -10.66399,0.20157 -15.99003,0.0547 -4.83602,-0.13338 -7.09316,1.5877 -6.91899,6.81787 0.30691,9.21602 -0.051,18.45253 0.1368,27.67493 0.0836,4.10174 -1.16884,5.93495 -5.57039,5.85354 -21.48265,-0.39715 -17.24351,2.68714 -17.41415,-16.7811 -0.26951,-30.75221 0.0424,-61.5093 -0.17901,-92.26226 -0.0397,-5.5159 1.45259,-7.62689 7.22276,-7.39613 10.2351,0.40939 20.4999,0.22693 30.74958,0.089 21.0847,-0.28363 44.16455,11.2611 41.72892,42.08567 m -47.70183,-21.45884 c -8.86386,0.0576 -8.86671,0.0576 -8.88147,8.68834 -0.007,4.29456 -0.004,8.58908 -0.002,12.88364 0.007,15.10387 0.008,15.10391 14.92242,14.45133 9.8161,-0.42948 16.5108,-5.80554 17.39289,-13.96702 1.35781,-12.5628 -2.60821,-18.85798 -13.80074,-21.40123 -2.74419,-0.62352 -5.66731,-0.45949 -9.63107,-0.65506 z"
   id="path3"
   style="stroke-width:1.2305" />
<path
   fill="#000000"
   opacity="1"
   stroke="none"
   d="m 754.69657,182.54113 c -8.17876,8.3694 -17.76526,11.99047 -28.98588,12.19918 -5.81343,0.10808 -13.263,-2.71651 -17.03457,1.60445 -3.39095,3.88483 -0.83598,11.04277 -1.02096,16.75166 -0.17913,5.52998 -0.18085,11.07356 -0.0181,16.60399 0.1071,3.63955 -1.32995,4.98511 -4.98939,5.23183 -18.00304,1.21435 -18.00153,1.29869 -18.00642,-16.26558 -0.009,-30.75311 0.16305,-61.5081 -0.15959,-92.25787 -0.0669,-6.37164 1.98102,-8.19937 8.06812,-7.80684 13.66886,0.8815 27.42709,-1.12048 41.0771,1.28676 17.65163,3.11299 30.36013,15.87252 29.58934,36.16507 -0.36891,9.70956 -1.2227,18.7635 -8.51965,26.48735 m -47.07461,-35.4577 c 0,9.3539 0,18.70777 0,28.22372 5.73014,0.94807 10.80281,0.22741 15.83523,-0.0584 9.73882,-0.55311 15.6839,-6.60672 16.52064,-16.41245 0.82614,-9.68023 -4.12719,-16.28601 -13.72902,-18.77368 -4.06433,-1.05296 -8.14608,-0.37849 -12.18398,-0.8118 -5.23775,-0.56212 -7.11167,1.74733 -6.44287,7.83264 z"
   id="path4"
   style="stroke-width:1.2305" />
<path
   fill="#000000"
   opacity="1"
   stroke="none"
   d="m 838.09388,173.39229 c 2.46094,19.50497 0.58672,38.56277 1.13437,57.5728 0.0172,0.59873 0.0403,1.46017 -0.31378,1.76735 -4.96821,4.30924 -10.88686,1.47542 -16.36089,2.02202 -3.45065,0.34458 -3.81423,-2.26438 -3.82399,-4.93328 -0.005,-1.2242 -0.10087,-2.48264 -1.41346,-3.3953 -2.76143,0.36343 -4.28093,2.76908 -6.32023,4.32764 -16.61286,12.69604 -40.13552,4.54395 -44.53924,-15.46993 -3.19591,-14.52519 7.2078,-27.83637 23.25994,-30.17683 7.4528,-1.08664 14.89545,-2.47588 22.19392,-4.31773 6.45556,-1.62909 7.12316,-5.25661 2.3708,-10.00592 -5.63993,-5.63626 -18.52741,-4.96434 -22.2211,1.80013 -2.67671,4.90207 -5.91272,5.53137 -10.51734,4.19493 -0.78206,-0.22696 -1.59611,-0.36628 -2.40483,-0.47518 -10.69204,-1.43956 -11.48123,-3.00754 -6.61622,-12.61673 4.8379,-9.5556 13.85369,-12.48323 23.2673,-13.8746 7.44184,-1.09998 15.09201,-0.78263 22.52738,1.32201 11.14386,3.15434 17.96631,10.12305 19.77737,22.25862 m -34.28912,23.64568 c -2.80078,0.55051 -5.69619,0.81653 -8.38311,1.70967 -5.93149,1.97156 -9.12634,7.79925 -7.75637,13.56018 1.17651,4.94695 7.29283,8.22742 13.31189,7.13984 10.73898,-1.94039 18.34701,-14.14742 15.59002,-25.49121 -3.90616,0.97816 -7.82629,1.95977 -12.76243,3.08152 z"
   id="path5"
   style="stroke-width:1.2305" />
<path
   fill="#000000"
   opacity="1"
   stroke="none"
   d="m 482.24603,171.3952 c 3.43601,-14.42887 13.97927,-19.78972 26.6011,-21.57363 10.43315,-1.47455 20.79255,-0.48239 30.18476,5.48109 10.02774,6.36695 11.61394,16.50794 11.95491,26.82664 0.52768,15.97395 0.24401,31.97494 0.2742,47.96443 0.002,1.00489 0.11664,2.51832 -0.45212,2.93589 -5.11459,3.75581 -10.98637,1.51898 -16.52176,1.6565 -3.86373,0.0961 -3.31036,-3.36872 -3.45351,-5.9758 -0.0532,-0.9696 -0.15599,-1.93656 -0.30034,-3.68115 -7.24123,6.56199 -14.48419,11.5528 -24.1654,11.51893 -14.91536,-0.0523 -26.26335,-8.71845 -27.17189,-21.1004 -1.30238,-17.75219 6.80405,-28.06458 23.76427,-30.28311 7.4911,-0.97985 15.00135,-1.91989 22.14953,-4.54635 4.99126,-1.83396 5.69003,-4.54387 2.37156,-8.73535 -5.49078,-6.93522 -18.95994,-6.37059 -23.31672,1.35285 -2.16135,3.83139 -4.67087,4.59577 -8.53174,3.72891 -3.78562,-0.84999 -7.63523,-1.41965 -11.46306,-2.07501 -1.77103,-0.30327 -2.45012,-1.28266 -1.92379,-3.49444 m 24.07963,47.42775 c 14.6205,3.0517 26.64293,-10.1938 22.02163,-24.98013 -6.19901,2.87371 -13.06405,2.88753 -19.52765,4.74658 -4.9625,1.42727 -8.20421,4.62791 -8.97771,9.82773 -0.69584,4.67726 1.75248,7.79032 6.48373,10.40582 z"
   id="path6"
   style="stroke-width:1.2305" />
<path
   fill="#000000"
   opacity="1"
   stroke="none"
   d="m 876.24463,184.35989 c -0.002,15.15704 -0.16208,29.70139 0.0822,44.23905 0.0822,4.89663 -1.74008,6.45752 -6.44761,6.3366 -18.46845,-0.47473 -15.26061,2.18373 -15.3632,-15.1439 -0.18438,-31.13062 0.12648,-62.26488 -0.19775,-93.39318 -0.0666,-6.3933 2.01241,-7.97214 8.05731,-7.82287 13.86,0.34232 13.86736,0.0622 13.86796,14.17044 6.8e-4,16.99953 5.3e-4,33.99907 10e-4,51.61386 z"
   id="path7"
   style="stroke-width:1.2305" />
<path
   fill="#000000"
   opacity="1"
   stroke="none"
   d="m 180.04394,200.53151 c -4.37597,2.32935 -8.44218,4.06155 -13.14429,3.99546 -8.02686,-0.11288 -12.58004,-5.42904 -10.75332,-13.25376 2.85932,-12.24744 10.6793,-20.95736 20.89285,-27.62657 4.23714,-2.76671 9.14328,-2.72811 13.40742,0.0375 8.96919,5.81729 15.82138,13.69447 19.52986,23.73265 1.74876,4.73354 2.38685,10.38887 -1.71162,14.47821 -4.28923,4.27966 -9.88722,3.02948 -15.05753,1.71193 -2.52995,-0.64477 -4.94365,-1.95451 -7.23289,-3.27116 -1.96547,-1.13032 -3.69264,-1.72161 -5.93048,0.19572 z"
   id="path8"
   style="stroke-width:1.2305" />
<path
   fill="#000000"
   opacity="1"
   stroke="none"
   d="m 205.37247,129.94687 c 4.63122,7.6493 4.74267,15.07574 0.78672,22.44048 -3.23529,6.02308 -8.59881,8.88826 -13.32383,7.55475 -4.30121,-1.21394 -8.64684,-8.30643 -7.76835,-14.09402 0.8842,-5.82496 2.4603,-11.61957 7.35787,-15.71586 4.07623,-3.40938 8.23561,-4.33429 12.94759,-0.18535 z"
   id="path9"
   style="stroke-width:1.2305" />
<path
   fill="#000000"
   opacity="1"
   stroke="none"
   d="m 173.718,129.21302 c 7.36752,6.84243 10.50837,14.5798 7.184,24.01444 -2.83266,8.03906 -11.31318,9.60667 -16.93257,3.28734 -5.4239,-6.09934 -6.56917,-18.45782 -2.33893,-25.40671 3.08328,-5.06487 7.24765,-4.40504 12.0875,-1.89507 z"
   id="path10"
   style="stroke-width:1.2305" />
<path
   fill="#000000"
   opacity="1"
   stroke="none"
   d="m 151.97208,149.73986 c 8.21364,4.73808 11.46884,12.32889 9.33866,20.87193 -1.33448,5.35184 -5.10095,7.68893 -10.54389,6.54254 -10.12113,-2.13175 -16.04316,-15.2887 -10.90725,-24.38849 2.76624,-4.9011 6.98577,-4.99247 12.11248,-3.02598 z"
   id="path11"
   style="stroke-width:1.2305" />
<path
   fill="#000000"
   opacity="1"
   stroke="none"
   d="m 936.3641,143.16255 c -0.6266,2.51005 -1.961,3.14171 -3.8138,2.52248 -1.6987,-0.56771 -1.7153,-2.14377 -1.7323,-3.56647 -0.046,-3.86297 -0.016,-7.72693 -0.016,-13.20081 -1.02017,5.33671 -1.72449,9.10738 -2.46659,12.87066 -0.45423,2.30344 -1.09239,4.42006 -4.13734,4.32974 -2.83577,-0.0841 -3.01137,-2.08417 -3.40596,-4.19069 -0.82532,-4.40587 -1.84448,-8.77549 -3.23601,-13.19108 0.59264,4.39572 0.4374,8.78334 0.17289,13.1693 -0.13339,2.21027 -0.50831,4.20316 -3.32831,4.14188 -2.74941,-0.0597 -3.26718,-1.98527 -3.26838,-4.23189 -0.004,-7.51029 -0.002,-15.02054 -0.002,-22.38232 8.81549,-1.47812 8.81549,-1.47812 13.15282,14.11828 0.90328,-4.08584 1.79747,-7.29301 2.28557,-10.56086 0.54863,-3.67244 2.64787,-4.47556 5.99171,-4.32708 3.9631,0.17597 3.9232,2.77749 3.9189,5.53077 -0.01,6.14051 -0.033,12.28105 -0.1157,18.96809 z"
   id="path12"
   style="stroke-width:1.2305" />
<path
   fill="#000000"
   opacity="1"
   stroke="none"
   d="m 228.97106,161.94907 c -0.98341,7.58911 -4.30496,12.88774 -11.42242,15.01183 -6.45106,1.92518 -10.8724,-1.23565 -11.51119,-7.9569 -0.60891,-6.40626 0.40203,-12.42784 5.63745,-16.68304 3.55558,-2.88989 7.96103,-4.90321 12.51872,-2.65647 4.73967,2.33645 4.75953,7.18441 4.77744,12.28458 z"
   id="path13"
   style="stroke-width:1.2305" />
<path
   fill="#000000"
   opacity="1"
   stroke="none"
   d="m 893.49617,118.62989 c 3.37878,-0.13951 6.23664,-0.38374 9.09683,-0.41243 2.59522,-0.0261 5.47283,-0.35014 6.30829,3.15726 -0.2658,0.43083 -0.41157,0.99051 -0.683,1.06017 -8.61804,2.21113 -8.61248,2.20392 -8.61361,11.89546 -3e-4,2.86597 -0.0153,5.7331 -0.10146,8.59738 -0.0454,1.51369 -0.45175,2.92061 -2.34287,2.99087 -1.97944,0.0736 -3.10172,-0.98472 -3.15542,-2.93713 -0.11243,-4.092 -0.43313,-8.21255 -0.097,-12.2741 0.43748,-5.28413 -0.90846,-8.37643 -6.91393,-7.62753 -0.71582,0.0893 -1.50786,-0.43327 -2.6541,-0.79531 1.16802,-5.82124 5.53547,-3.30533 9.15623,-3.65464 z"
   id="path14"
   style="stroke-width:1.2305" />
</svg>
