<svg version="1.1" id="Layer_1" xmlns="http://www.w3.org/2000/svg" xmlns:xlink="http://www.w3.org/1999/xlink" x="0px" y="0px"
	 width="100%" viewBox="0 0 1024 1024" enable-background="new 0 0 1024 1024" xml:space="preserve">
<path fill="#000000" opacity="1.000000" stroke="none" 
	d="
M225.867706,364.572754 
	C252.795425,361.441132 277.161835,364.995819 295.925446,386.487579 
	C314.426575,407.678619 303.211090,444.476135 276.264374,450.818970 
	C275.389862,450.450562 275.130310,449.666687 274.950562,448.841858 
	C272.589325,438.006653 265.411072,430.064331 256.053223,428.642853 
	C244.917755,426.951294 236.003113,431.025208 229.892426,440.429260 
	C220.910904,454.251343 221.513947,468.306366 229.629944,482.337616 
	C237.756317,496.386749 249.357483,507.451233 260.989105,518.411804 
	C273.841858,530.523071 287.492126,541.728088 301.566101,552.411682 
	C303.531769,553.903809 304.968567,554.554016 307.181244,552.755920 
	C329.525879,534.597107 352.671387,517.307251 370.386597,494.164856 
	C376.107147,486.691742 380.732758,478.643738 382.270782,469.177002 
	C383.853851,459.433472 380.022736,443.437500 368.195740,436.680054 
	C357.407257,430.515961 345.477814,432.923370 338.155121,442.972046 
	C337.379761,444.036041 336.788116,445.277344 334.975616,445.923218 
	C328.281403,440.381104 322.714386,434.102325 322.646851,424.493591 
	C322.467590,398.984528 334.455383,383.739990 360.654846,377.131683 
	C365.570648,375.891754 367.620178,373.390381 368.590881,368.967621 
	C369.320190,365.644623 370.302429,362.377167 371.148193,359.175415 
	C372.119049,359.314270 372.587189,359.239471 372.733978,359.422455 
	C381.219910,370.002289 392.811371,375.827515 404.698456,381.784546 
	C426.162292,392.540741 436.967285,411.350464 440.335907,434.598694 
	C445.405670,469.587280 433.340546,499.127228 410.249542,524.632385 
	C391.699036,545.122314 369.528259,561.471802 347.134125,577.451355 
	C334.254517,586.641724 321.058624,595.367065 307.478790,603.505920 
	C305.408325,604.746765 303.763733,605.031189 301.538452,603.746094 
	C264.993927,582.640686 229.328110,560.240234 198.032257,531.654602 
	C178.533905,513.844849 164.138000,492.662567 159.324310,466.195038 
	C154.963058,442.215179 156.784241,418.892731 171.456161,398.392212 
	C184.694427,379.894867 202.723587,368.342529 225.867706,364.572754 
z"/>
<path fill="#000000" opacity="1.000000" stroke="none" 
	d="
M641.687134,550.064575 
	C627.303955,550.048035 627.461609,550.003113 623.517761,536.158447 
	C618.966431,520.181519 614.099426,504.294586 609.372681,488.367584 
	C608.814270,486.485809 607.880981,484.677063 608.201721,482.097504 
	C613.557983,481.270508 618.996887,481.518463 624.391479,481.869293 
	C626.923584,482.033966 626.880005,484.649414 627.340454,486.503601 
	C630.379150,498.740997 633.366699,510.991058 636.386780,523.233154 
	C636.490784,523.654846 636.762024,524.035339 637.368408,525.288879 
	C639.908325,515.235535 642.247803,505.980133 644.580566,496.723083 
	C644.661499,496.401947 644.649292,496.057770 644.725891,495.735107 
	C648.242004,480.932465 648.240051,480.995819 663.399597,481.611603 
	C666.378357,481.732605 667.809326,482.723083 668.529236,485.738220 
	C671.568787,498.467407 674.858093,511.136963 678.386658,525.140320 
	C680.976257,514.570679 683.380249,505.143799 685.585022,495.670532 
	C688.942017,481.246613 688.883545,481.225861 703.665405,481.669983 
	C704.969482,481.709137 706.268311,481.921967 707.827271,482.080322 
	C707.120056,488.497711 704.695312,494.184113 702.984863,500.027710 
	C698.505127,515.332581 693.709045,530.544495 689.146729,545.825623 
	C688.271179,548.757996 686.907715,550.110779 683.591431,550.164001 
	C669.250854,550.394287 669.326965,550.482910 665.609924,536.675964 
	C663.062317,527.213257 660.272095,517.815735 657.397339,507.710449 
	C653.919495,520.393677 650.594910,532.536377 647.257202,544.675537 
	C646.516602,547.369141 646.204712,550.501465 641.687134,550.064575 
z"/>
<path fill="#000000" opacity="1.000000" stroke="none" 
	d="
M544.333862,489.819733 
	C543.578979,505.113831 531.783447,516.789612 516.893494,517.339966 
	C512.566650,517.499939 508.227142,517.503784 503.898804,517.384399 
	C499.968689,517.276001 498.134369,518.674683 498.275909,522.925110 
	C498.525330,530.414734 498.234467,537.921021 498.387085,545.415833 
	C498.454987,548.749207 497.437195,550.239014 493.860168,550.172852 
	C476.401764,549.850098 479.846802,552.356628 479.708130,536.535278 
	C479.489105,511.543732 479.742584,486.548218 479.562653,461.556061 
	C479.530365,457.073425 480.743134,455.357880 485.432404,455.545410 
	C493.750214,455.878113 502.092163,455.729828 510.421814,455.617767 
	C527.556824,455.387268 546.313232,464.769379 544.333862,489.819733 
M505.567780,472.380676 
	C498.364349,472.427521 498.362030,472.427521 498.350037,479.441467 
	C498.344086,482.931549 498.346741,486.421600 498.348389,489.911682 
	C498.354218,502.186218 498.354675,502.186249 510.475464,501.655914 
	C518.452759,501.306885 523.893372,496.937897 524.610229,490.305267 
	C525.713684,480.095795 522.490601,474.979858 513.394714,472.913025 
	C511.164581,472.406311 508.789032,472.539612 505.567780,472.380676 
z"/>
<path fill="#000000" opacity="1.000000" stroke="none" 
	d="
M770.571167,507.522003 
	C763.924500,514.323608 756.133789,517.266357 747.015076,517.435974 
	C742.290649,517.523804 736.236572,515.228333 733.171509,518.739868 
	C730.415771,521.896973 732.492126,527.714050 732.341797,532.353516 
	C732.196228,536.847595 732.194824,541.352722 732.327087,545.847168 
	C732.414124,548.804932 731.246277,549.898438 728.272339,550.098938 
	C713.641724,551.085815 713.642944,551.154358 713.638977,536.880310 
	C713.632019,511.888031 713.771484,486.894226 713.509277,461.904663 
	C713.454895,456.726593 715.119202,455.241241 720.066040,455.560242 
	C731.174377,456.276611 742.355347,454.649658 753.448364,456.605957 
	C767.793396,459.135803 778.121277,469.505157 777.494873,485.996399 
	C777.195068,493.887115 776.501221,501.245026 770.571167,507.522003 
M732.314819,478.706421 
	C732.314819,486.308105 732.314819,493.909760 732.314819,501.643127 
	C736.971558,502.413605 741.093994,501.827942 745.183716,501.595642 
	C753.098206,501.146149 757.929626,496.226532 758.609619,488.257660 
	C759.281006,480.390778 755.255554,475.022430 747.452393,473.000763 
	C744.149414,472.145050 740.832275,472.693176 737.550781,472.341034 
	C733.294189,471.884216 731.771301,473.761047 732.314819,478.706421 
z"/>
<path fill="#000000" opacity="1.000000" stroke="none" 
	d="
M838.346069,500.086975 
	C840.346008,515.938171 838.822876,531.425964 839.267944,546.874939 
	C839.281921,547.361511 839.300720,548.061584 839.012939,548.311218 
	C834.975403,551.813232 830.165466,549.510254 825.716858,549.954468 
	C822.912598,550.234497 822.617126,548.114258 822.609192,545.945312 
	C822.605530,544.950439 822.527222,543.927734 821.460510,543.186035 
	C819.216370,543.481384 817.981506,545.436401 816.324219,546.703003 
	C802.823364,557.020752 783.707092,550.395752 780.128296,534.130981 
	C777.531067,522.326721 785.985901,511.509064 799.031067,509.607025 
	C805.087769,508.723938 811.136230,507.594940 817.067505,506.098114 
	C822.313782,504.774200 822.856323,501.826202 818.994202,497.966553 
	C814.410767,493.386108 803.937439,493.932159 800.935669,499.429474 
	C798.760376,503.413269 796.130554,503.924683 792.388489,502.838593 
	C791.752930,502.654144 791.091370,502.540924 790.434143,502.452423 
	C781.744995,501.282532 781.103638,500.008270 785.057312,492.199127 
	C788.988953,484.433533 796.315857,482.054321 803.966064,480.923584 
	C810.013855,480.029663 816.230957,480.287567 822.273499,481.997955 
	C831.329834,484.561401 836.874268,490.224701 838.346069,500.086975 
M810.480164,519.303223 
	C808.204041,519.750610 805.851013,519.966797 803.667419,520.692627 
	C798.847046,522.294861 796.250671,527.030884 797.364014,531.712646 
	C798.320129,535.732910 803.290710,538.398865 808.182251,537.515015 
	C816.909546,535.938110 823.092407,526.017761 820.851868,516.798950 
	C817.677429,517.593872 814.491638,518.391602 810.480164,519.303223 
z"/>
<path fill="#000000" opacity="1.000000" stroke="none" 
	d="
M549.157471,498.463989 
	C551.949829,486.738007 560.518066,482.381378 570.775513,480.931641 
	C579.254272,479.733307 587.673096,480.539612 595.305908,485.385986 
	C603.455200,490.560242 604.744263,498.801575 605.021362,507.187317 
	C605.450195,520.168945 605.219666,533.172546 605.244202,546.166809 
	C605.245789,546.983459 605.338989,548.213379 604.876770,548.552734 
	C600.720276,551.604980 595.948425,549.787170 591.449951,549.898926 
	C588.309998,549.976990 588.759705,547.161255 588.643372,545.042542 
	C588.600098,544.254578 588.516602,543.468750 588.399292,542.050964 
	C582.514526,547.383728 576.628357,551.439636 568.760681,551.412109 
	C556.639343,551.369629 547.417114,544.326843 546.678772,534.264343 
	C545.620361,519.837585 552.208252,511.456970 565.991394,509.654022 
	C572.079224,508.857727 578.182617,508.093781 583.991760,505.959320 
	C588.048035,504.468903 588.615906,502.266632 585.919067,498.860321 
	C581.456848,493.224243 570.510803,493.683105 566.970154,499.959747 
	C565.213684,503.073425 563.174255,503.694611 560.036621,502.990143 
	C556.960144,502.299377 553.831665,501.836426 550.720886,501.303833 
	C549.281616,501.057373 548.729736,500.261444 549.157471,498.463989 
M568.726379,537.007324 
	C580.608093,539.487366 590.378418,528.723083 586.622803,516.706604 
	C581.585022,519.041992 576.005981,519.053223 570.753174,520.564026 
	C566.720276,521.723938 564.085815,524.325012 563.457214,528.550781 
	C562.891724,532.351868 564.881409,534.881775 568.726379,537.007324 
z"/>
<path fill="#000000" opacity="1.000000" stroke="none" 
	d="
M869.350220,509.000061 
	C869.348755,521.317810 869.218506,533.137634 869.416992,544.952026 
	C869.483826,548.931396 868.002869,550.199890 864.177185,550.101624 
	C849.168335,549.715820 851.775269,551.876282 851.691895,537.794556 
	C851.542053,512.495483 851.794678,487.193451 851.531189,461.896271 
	C851.477051,456.700592 853.166626,455.417511 858.079163,455.538818 
	C869.342834,455.817017 869.348816,455.589325 869.349304,467.054779 
	C869.349854,480.869873 869.349731,494.684967 869.350220,509.000061 
z"/>
<path fill="#000000" opacity="1.000000" stroke="none" 
	d="
M303.565430,522.142334 
	C300.009186,524.035339 296.704681,525.443054 292.883392,525.389343 
	C286.360168,525.297607 282.659912,520.977295 284.144440,514.618347 
	C286.468140,504.665161 292.823242,497.586823 301.123535,492.166931 
	C304.566956,489.918488 308.554047,489.949860 312.019409,492.197418 
	C319.308441,496.924988 324.877045,503.326569 327.890839,511.484344 
	C329.312012,515.331177 329.830566,519.927124 326.499847,523.250427 
	C323.014099,526.728394 318.464752,525.712402 314.262970,524.641663 
	C312.206940,524.117676 310.245392,523.053284 308.384979,521.983276 
	C306.787689,521.064697 305.384064,520.584167 303.565430,522.142334 
z"/>
<path fill="#000000" opacity="1.000000" stroke="none" 
	d="
M324.149292,464.779968 
	C327.912964,470.996368 328.003540,477.031647 324.788635,483.016785 
	C322.159393,487.911591 317.800598,490.240051 313.960693,489.156342 
	C310.465210,488.169800 306.933624,482.405914 307.647552,477.702484 
	C308.366119,472.968689 309.646973,468.259552 313.627106,464.930603 
	C316.939758,462.159882 320.319977,461.408234 324.149292,464.779968 
z"/>
<path fill="#000000" opacity="1.000000" stroke="none" 
	d="
M298.424500,464.183594 
	C304.411896,469.744263 306.964386,476.032227 304.262756,483.699524 
	C301.960724,490.232666 295.068817,491.506622 290.502075,486.371063 
	C286.094208,481.414276 285.163483,471.370850 288.601288,465.723663 
	C291.106995,461.607574 294.491272,462.143799 298.424500,464.183594 
z"/>
<path fill="#000000" opacity="1.000000" stroke="none" 
	d="
M280.752136,480.865234 
	C287.427155,484.715759 290.072571,490.884613 288.341431,497.827332 
	C287.256927,502.176636 284.196014,504.075928 279.772675,503.144287 
	C271.547485,501.411865 266.734802,490.719543 270.908630,483.324371 
	C273.156677,479.341370 276.585785,479.267120 280.752136,480.865234 
z"/>
<path fill="#000000" opacity="1.000000" stroke="none" 
	d="
M918.207764,475.520020 
	C917.698547,477.559875 916.614136,478.073212 915.108398,477.569977 
	C913.727905,477.108612 913.714478,475.827789 913.700623,474.671600 
	C913.663025,471.532257 913.687744,468.392120 913.687744,463.943634 
	C912.858643,468.280640 912.286255,471.344971 911.683167,474.403290 
	C911.314026,476.275238 910.795410,477.995361 908.320862,477.921967 
	C906.016296,477.853607 905.873596,476.228210 905.552917,474.516296 
	C904.882202,470.935760 904.053955,467.384674 902.923096,463.796234 
	C903.404724,467.368530 903.278564,470.934235 903.063599,474.498596 
	C902.955200,476.294830 902.650513,477.914398 900.358765,477.864594 
	C898.124390,477.816071 897.703613,476.251221 897.702637,474.425446 
	C897.699402,468.322021 897.701355,462.218628 897.701355,456.235901 
	C904.865479,455.034668 904.865479,455.034668 908.390320,467.709473 
	C909.124390,464.389008 909.851074,461.782623 910.247742,459.126923 
	C910.693604,456.142426 912.399597,455.489746 915.117004,455.610413 
	C918.337769,455.753418 918.305298,457.867615 918.301819,460.105133 
	C918.294128,465.095367 918.274780,470.085632 918.207764,475.520020 
z"/>
<path fill="#000000" opacity="1.000000" stroke="none" 
	d="
M343.327271,490.787354 
	C342.528076,496.954834 339.828735,501.260895 334.044556,502.987091 
	C328.801941,504.551636 325.208832,501.982910 324.689697,496.520721 
	C324.194855,491.314514 325.016418,486.420929 329.271118,482.962830 
	C332.160645,480.614288 335.740845,478.978119 339.444763,480.803986 
	C343.296570,482.702759 343.312714,486.642578 343.327271,490.787354 
z"/>
<path fill="#000000" opacity="1.000000" stroke="none" 
	d="
M883.370117,455.582947 
	C886.115967,455.469574 888.438477,455.271088 890.762878,455.247772 
	C892.871948,455.226562 895.210510,454.963226 895.889465,457.813599 
	C895.673462,458.163727 895.554993,458.618561 895.334412,458.675171 
	C888.330750,460.472107 888.335266,460.466248 888.334351,468.342316 
	C888.334106,470.671417 888.321899,473.001465 888.251892,475.329193 
	C888.215027,476.559326 887.884766,477.702698 886.347900,477.759796 
	C884.739258,477.819580 883.827209,476.959534 883.783569,475.372864 
	C883.692200,472.047394 883.431580,468.698730 883.704773,465.398010 
	C884.060303,461.103729 882.966492,458.590698 878.085999,459.199310 
	C877.504272,459.271881 876.860596,458.847198 875.929077,458.552979 
	C876.878296,453.822205 880.427612,455.866821 883.370117,455.582947 
z"/>
</svg>